<svg xmlns="http://www.w3.org/2000/svg" viewBox="0 0 200 200" width="200" height="200">
  <defs>
    <radialGradient id="goldGrad" cx="35%" cy="30%" r="70%">
      <stop offset="0%" stop-color="#FFF9C4"/>
      <stop offset="50%" stop-color="#FFD600"/>
      <stop offset="100%" stop-color="#FF8F00"/>
    </radialGradient>
  </defs>
  <!-- Shadow -->
  <ellipse cx="100" cy="175" rx="55" ry="12" fill="rgba(180,100,0,0.2)"/>
  <!-- Stem -->
  <path d="M95 30 Q90 15 80 10 Q88 18 92 32" fill="#5D3A00" stroke="#3a1f00" stroke-width="1.5"/>
  <!-- Main body (gold) -->
  <path d="M92 35 Q60 50 45 90 Q35 120 50 155 Q60 175 80 178 Q100 180 115 170 Q130 158 135 135 Q142 105 138 75 Q134 50 115 38 Q105 32 92 35Z"
        fill="url(#goldGrad)" stroke="#F9A825" stroke-width="2"/>
  <!-- Shine streaks -->
  <path d="M98 40 Q72 55 58 92 Q50 118 62 150 Q70 170 85 172"
        fill="none" stroke="#FFFFF0" stroke-width="7" stroke-linecap="round" opacity="0.55"/>
  <path d="M110 45 Q95 60 88 90"
        fill="none" stroke="#FFFFFF" stroke-width="3" stroke-linecap="round" opacity="0.35"/>
  <!-- Tip -->
  <path d="M50 155 Q45 165 48 172 Q52 160 58 158" fill="#5D3A00"/>
  <!-- Star eyes -->
  <!-- Left star eye -->
  <g transform="translate(90,100)">
    <polygon points="0,-8 2,-3 7,-3 3,1 5,7 0,3 -5,7 -3,1 -7,-3 -2,-3" fill="#3a2000"/>
  </g>
  <!-- Right star eye -->
  <g transform="translate(116,95)">
    <polygon points="0,-8 2,-3 7,-3 3,1 5,7 0,3 -5,7 -3,1 -7,-3 -2,-3" fill="#3a2000"/>
  </g>
  <!-- Blush (gold toned) -->
  <ellipse cx="80" cy="114" rx="9" ry="6" fill="#FF8F00" opacity="0.35"/>
  <ellipse cx="122" cy="109" rx="9" ry="6" fill="#FF8F00" opacity="0.35"/>
  <!-- Confident smile -->
  <path d="M86 120 Q102 135 119 120" fill="none" stroke="#3a2000" stroke-width="3.5" stroke-linecap="round"/>
  <!-- Sparkle decorations -->
  <text x="138" y="65" font-size="16" opacity="0.9">✦</text>
  <text x="50" y="78" font-size="11" opacity="0.7">✦</text>
  <text x="130" y="148" font-size="10" opacity="0.6">✦</text>
</svg>
