<svg xmlns="http://www.w3.org/2000/svg" viewBox="0 0 200 200" width="200" height="200">
  <!-- Stage 5: コズミックバナナ - 最大・宇宙紫・発光星目 -->
  <defs>
    <radialGradient id="g5" cx="38%" cy="30%" r="68%">
      <stop offset="0%"   stop-color="#CE93D8"/>
      <stop offset="40%"  stop-color="#5E35B1"/>
      <stop offset="100%" stop-color="#1A0A3E"/>
    </radialGradient>
    <radialGradient id="eyeG" cx="50%" cy="50%" r="50%">
      <stop offset="0%"   stop-color="#FFFFFF"/>
      <stop offset="50%"  stop-color="#FFE57F"/>
      <stop offset="100%" stop-color="#FF8F00"/>
    </radialGradient>
    <filter id="glow5">
      <feGaussianBlur stdDeviation="2.5" result="b"/>
      <feMerge><feMergeNode in="b"/><feMergeNode in="SourceGraphic"/></feMerge>
    </filter>
  </defs>
  <g transform="translate(97,108) scale(1.40) translate(-97,-108)">
    <!-- Cosmic aura -->
    <ellipse cx="90" cy="108" rx="72" ry="84" fill="#3D1A8E" opacity="0.22"/>
    <ellipse cx="95" cy="192" rx="42" ry="9" fill="rgba(30,0,80,0.3)"/>
    <path d="M97 26 Q93 12 82 8 Q90 16 95 27" fill="#0D0020" stroke="#0D0020" stroke-width="1.5"/>
    <path d="M97 26 Q63 40 46 78 Q28 118 40 158 Q50 180 70 189 Q86 195 100 190 Q115 184 125 168 Q140 147 141 115 Q145 81 134 53 Q124 30 108 24 Q103 22 97 26Z"
          fill="url(#g5)" stroke="#7E57C2" stroke-width="2.5"/>
    <path d="M100 30 Q70 46 54 84 Q40 120 50 158 Q57 176 70 185"
          fill="none" stroke="#EDE7F6" stroke-width="5" stroke-linecap="round" opacity="0.38"/>
    <path d="M70 189 Q62 195 65 199 Q70 193 76 190" fill="#0D0020"/>
    <!-- Glowing star eyes -->
    <g filter="url(#glow5)">
      <g transform="translate(82,107)">
        <polygon points="0,-11 2.8,-4 10,-4 4.5,1.5 7,9.5 0,4.5 -7,9.5 -4.5,1.5 -10,-4 -2.8,-4" fill="url(#eyeG)"/>
      </g>
      <g transform="translate(107,100)">
        <polygon points="0,-11 2.8,-4 10,-4 4.5,1.5 7,9.5 0,4.5 -7,9.5 -4.5,1.5 -10,-4 -2.8,-4" fill="url(#eyeG)"/>
      </g>
    </g>
    <!-- Blush (violet) -->
    <ellipse cx="74"  cy="119" rx="10" ry="6" fill="#CE93D8" opacity="0.5"/>
    <ellipse cx="115" cy="112" rx="10" ry="6" fill="#CE93D8" opacity="0.5"/>
    <!-- Cosmic smile -->
    <path d="M78 129 Q94 142 113 129" fill="none" stroke="#EDE7F6" stroke-width="3.5" stroke-linecap="round"/>
    <!-- Stars -->
    <g filter="url(#glow5)" opacity="0.9">
      <polygon points="38,46  39.5,51 45,51 40.5,54.5 42.5,59.5 38,56 33.5,59.5 35.5,54.5 31,51  36.5,51"  fill="#FFE57F"/>
      <polygon points="152,52  153.5,57 159,57 154.5,60.5 156.5,65.5 152,62 147.5,65.5 149.5,60.5 145,57  150.5,57"  fill="#CE93D8"/>
      <polygon points="34,150 35.5,155 41,155 36.5,158.5 38.5,163.5 34,160 29.5,163.5 31.5,158.5 27,155 32.5,155" fill="#80DEEA"/>
      <polygon points="154,148 155.5,153 161,153 156.5,156.5 158.5,161.5 154,158 149.5,161.5 151.5,156.5 147,153 152.5,153" fill="#FFE57F"/>
    </g>
    <!-- Cosmic dust -->
    <circle cx="54"  cy="68"  r="2.2" fill="#CE93D8" opacity="0.65"/>
    <circle cx="146" cy="72"  r="2"   fill="#80DEEA" opacity="0.65"/>
    <circle cx="47"  cy="135" r="1.8" fill="#FFE57F" opacity="0.6"/>
    <circle cx="148" cy="138" r="2"   fill="#CE93D8" opacity="0.6"/>
  </g>
</svg>
