<svg xmlns="http://www.w3.org/2000/svg" viewBox="0 0 200 200" width="200" height="200">
  <!-- Stage 0: 青バナナ - 小さい・緑・困り顔 -->
  <g transform="translate(97,108) scale(0.68) translate(-97,-108)">
    <ellipse cx="95" cy="192" rx="42" ry="9" fill="rgba(0,0,0,0.12)"/>
    <path d="M97 26 Q93 12 82 8 Q90 16 95 27" fill="#2d5016" stroke="#1a3500" stroke-width="1.5"/>
    <path d="M97 26 Q63 40 46 78 Q28 118 40 158 Q50 180 70 189 Q86 195 100 190 Q115 184 125 168 Q140 147 141 115 Q145 81 134 53 Q124 30 108 24 Q103 22 97 26Z"
          fill="#8BC34A" stroke="#689F38" stroke-width="2"/>
    <path d="M100 30 Q70 46 54 84 Q40 120 50 158 Q57 176 70 185"
          fill="none" stroke="#DCEDC8" stroke-width="6" stroke-linecap="round" opacity="0.5"/>
    <path d="M70 189 Q62 195 65 199 Q70 193 76 190" fill="#2d5016"/>
    <!-- Worried eyebrows -->
    <path d="M75 100 Q82 96 89 100" fill="none" stroke="#3a2000" stroke-width="2.5" stroke-linecap="round"/>
    <path d="M101 94 Q108 92 115 96" fill="none" stroke="#3a2000" stroke-width="2.5" stroke-linecap="round"/>
    <!-- Eyes -->
    <ellipse cx="82" cy="107" rx="5" ry="6" fill="#3a2000"/>
    <ellipse cx="107" cy="100" rx="5" ry="6" fill="#3a2000"/>
    <circle cx="84" cy="105" r="2" fill="white"/>
    <circle cx="109" cy="98"  r="2" fill="white"/>
    <!-- Frown -->
    <path d="M79 122 Q94 115 112 122" fill="none" stroke="#3a2000" stroke-width="3" stroke-linecap="round"/>
    <!-- Sweat drop -->
    <path d="M125 70 Q128 76 124 80 Q120 76 123 70 Q124 67 125 70Z" fill="#64B5F6" opacity="0.85"/>
  </g>
</svg>
