<svg xmlns="http://www.w3.org/2000/svg" viewBox="0 0 200 200" width="200" height="200">
  <!-- Shadow -->
  <ellipse cx="100" cy="175" rx="55" ry="12" fill="rgba(0,0,0,0.12)"/>
  <!-- Stem -->
  <path d="M95 30 Q90 15 80 10 Q88 18 92 32" fill="#2d5016" stroke="#1a3500" stroke-width="1.5"/>
  <!-- Main body (green unripe) -->
  <path d="M92 35 Q60 50 45 90 Q35 120 50 155 Q60 175 80 178 Q100 180 115 170 Q130 158 135 135 Q142 105 138 75 Q134 50 115 38 Q105 32 92 35Z"
        fill="#8BC34A" stroke="#689F38" stroke-width="2"/>
  <!-- Highlight -->
  <path d="M98 40 Q72 55 58 92 Q50 118 62 150 Q70 170 85 172"
        fill="none" stroke="#DCEDC8" stroke-width="6" stroke-linecap="round" opacity="0.55"/>
  <!-- Tip -->
  <path d="M50 155 Q45 165 48 172 Q52 160 58 158" fill="#2d5016"/>
  <!-- Worried eyebrows -->
  <path d="M82 88 Q90 83 97 87" fill="none" stroke="#3a2000" stroke-width="2.5" stroke-linecap="round"/>
  <path d="M109 84 Q116 82 123 86" fill="none" stroke="#3a2000" stroke-width="2.5" stroke-linecap="round"/>
  <!-- Eyes (small, worried) -->
  <ellipse cx="90" cy="100" rx="5" ry="7" fill="#3a2000"/>
  <ellipse cx="116" cy="96" rx="5" ry="7" fill="#3a2000"/>
  <circle cx="92" cy="97" r="2" fill="white"/>
  <circle cx="118" cy="93" r="2" fill="white"/>
  <!-- Frown -->
  <path d="M89 120 Q101 113 117 120" fill="none" stroke="#3a2000" stroke-width="3" stroke-linecap="round"/>
  <!-- Sweat drop -->
  <path d="M128 78 Q131 84 127 88 Q123 84 126 78 Q127 74 128 78Z" fill="#64B5F6" opacity="0.85"/>
</svg>
