<svg xmlns="http://www.w3.org/2000/svg" viewBox="0 0 240 240" width="240" height="240">
  <!-- Shadow -->
  <ellipse cx="108" cy="228" rx="56" ry="11" fill="rgba(0,0,0,0.12)"/>
  <!-- Stem -->
  <path d="M120 22 Q114 8 102 4 Q110 14 118 24" fill="#5a3e00" stroke="#3a2800" stroke-width="1.5"/>
  <!-- Main banana body: bright clean yellow -->
  <path d="M120 20
           C104 20 86 34 72 60
           C58 86 52 118 56 148
           C60 174 74 196 94 206
           C108 214 124 214 136 206
           C150 196 158 178 160 154
           C164 126 160 92 148 66
           C138 44 130 28 120 20Z" fill="#FFD740" stroke="#F9A825" stroke-width="2.5"/>
  <!-- Highlight -->
  <path d="M92 30 C78 48 70 70 68 94 C66 118 70 140 80 158" fill="none" stroke="#FFFDE7" stroke-width="10" stroke-linecap="round" opacity="0.65"/>
  <!-- Tip -->
  <path d="M56 148 C50 164 52 178 60 184 C62 168 68 158 76 154" fill="#4a2c00"/>
  
  <!-- Face: eyes -->
  <circle cx="104" cy="114" r="8.5" fill="#3a2000"/>
  <circle cx="130" cy="124" r="8.5" fill="#3a2000"/>
  <circle cx="106" cy="112" r="3.0" fill="white"/>
  <circle cx="132" cy="122" r="3.0" fill="white"/>
  <!-- Face: blush -->
  <ellipse cx="94" cy="130" rx="10" ry="6" fill="#ff8a80" opacity="0.55"/>
  <ellipse cx="140" cy="140" rx="10" ry="6" fill="#ff8a80" opacity="0.55"/>
  <!-- Face: smile -->
  <path d="M100 142 Q117 158 136 142" fill="none" stroke="#3a2000" stroke-width="4" stroke-linecap="round"/>
  <!-- Small sparkle -->
  <path d="M184 37 L187.5 42.5 L193 46 L187.5 49.5 L184 55 L180.5 49.5 L175 46 L180.5 42.5 Z" fill="#FFE082" opacity="0.8"/>
</svg>
