<svg xmlns="http://www.w3.org/2000/svg" viewBox="0 0 200 200" width="200" height="200">
  <!-- Stage 4: レインボーバナナ - さらに大きい・虹色・ハート目 -->
  <defs>
    <linearGradient id="g4" x1="0%" y1="0%" x2="60%" y2="100%">
      <stop offset="0%"   stop-color="#FF5252"/>
      <stop offset="20%"  stop-color="#FF9800"/>
      <stop offset="40%"  stop-color="#FFEB3B"/>
      <stop offset="60%"  stop-color="#4CAF50"/>
      <stop offset="80%"  stop-color="#2196F3"/>
      <stop offset="100%" stop-color="#9C27B0"/>
    </linearGradient>
  </defs>
  <g transform="translate(97,108) scale(1.32) translate(-97,-108)">
    <ellipse cx="95" cy="192" rx="42" ry="9" fill="rgba(100,0,100,0.18)"/>
    <path d="M97 26 Q93 12 82 8 Q90 16 95 27" fill="#4a1060" stroke="#2d0040" stroke-width="1.5"/>
    <path d="M97 26 Q63 40 46 78 Q28 118 40 158 Q50 180 70 189 Q86 195 100 190 Q115 184 125 168 Q140 147 141 115 Q145 81 134 53 Q124 30 108 24 Q103 22 97 26Z"
          fill="url(#g4)" stroke="#CE93D8" stroke-width="2.5"/>
    <path d="M100 30 Q70 46 54 84 Q40 120 50 158 Q57 176 70 185"
          fill="none" stroke="#FFFFFF" stroke-width="6" stroke-linecap="round" opacity="0.45"/>
    <path d="M70 189 Q62 195 65 199 Q70 193 76 190" fill="#4a1060"/>
    <!-- Heart eyes -->
    <path d="M76,103 C76,100 79,98 82,101 C85,98 88,100 88,103 C88,106 82,112 82,112 C82,112 76,106 76,103Z" fill="#FF1744"/>
    <path d="M101,96  C101,93  104,91  107,94  C110,91  113,93  113,96  C113,99  107,105 107,105 C107,105 101,99  101,96Z"  fill="#FF1744"/>
    <circle cx="83"  cy="102" r="1.8" fill="white"/>
    <circle cx="108" cy="95"  r="1.8" fill="white"/>
    <!-- Blush -->
    <ellipse cx="74"  cy="119" rx="10" ry="6" fill="#E91E63" opacity="0.4"/>
    <ellipse cx="115" cy="112" rx="10" ry="6" fill="#E91E63" opacity="0.4"/>
    <!-- Big smile -->
    <path d="M76 129 Q94 144 114 129" fill="none" stroke="#3a0060" stroke-width="4" stroke-linecap="round"/>
    <!-- Decor -->
    <text x="33"  y="55"  font-size="14">🌟</text>
    <text x="143" y="60"  font-size="14">🌟</text>
    <text x="30"  y="150" font-size="12">🌈</text>
    <text x="143" y="154" font-size="12">🌈</text>
  </g>
</svg>
