<svg xmlns="http://www.w3.org/2000/svg" viewBox="0 0 200 200" width="200" height="200">
  <!-- Stage 3: 輝くバナナ - 大きい・白く輝く・興奮顔 -->
  <defs>
    <radialGradient id="g3" cx="38%" cy="30%" r="68%">
      <stop offset="0%" stop-color="#FFFFFF"/>
      <stop offset="40%" stop-color="#FFF9C4"/>
      <stop offset="100%" stop-color="#FFD600"/>
    </radialGradient>
    <filter id="glow3">
      <feGaussianBlur stdDeviation="3" result="b"/>
      <feMerge><feMergeNode in="b"/><feMergeNode in="SourceGraphic"/></feMerge>
    </filter>
  </defs>
  <g transform="translate(97,108) scale(1.22) translate(-97,-108)">
    <!-- Glow halo -->
    <ellipse cx="90" cy="108" rx="68" ry="80" fill="#FFE57F" opacity="0.28"/>
    <ellipse cx="95" cy="192" rx="42" ry="9" fill="rgba(200,150,0,0.18)"/>
    <path d="M97 26 Q93 12 82 8 Q90 16 95 27" fill="#5D3A00" stroke="#3a1f00" stroke-width="1.5"/>
    <path d="M97 26 Q63 40 46 78 Q28 118 40 158 Q50 180 70 189 Q86 195 100 190 Q115 184 125 168 Q140 147 141 115 Q145 81 134 53 Q124 30 108 24 Q103 22 97 26Z"
          fill="url(#g3)" stroke="#FDD835" stroke-width="2" filter="url(#glow3)"/>
    <path d="M100 30 Q70 46 54 84 Q40 120 50 158 Q57 176 70 185"
          fill="none" stroke="#FFFFFF" stroke-width="8" stroke-linecap="round" opacity="0.7"/>
    <path d="M70 189 Q62 195 65 199 Q70 193 76 190" fill="#5D3A00"/>
    <!-- Big star eyes -->
    <g transform="translate(82,107)">
      <polygon points="0,-10 2.5,-3.5 9,-3.5 4,1.5 6,9 0,4 -6,9 -4,1.5 -9,-3.5 -2.5,-3.5" fill="#3a2000"/>
      <circle cx="0" cy="0" r="2.5" fill="#FFE57F"/>
    </g>
    <g transform="translate(107,100)">
      <polygon points="0,-10 2.5,-3.5 9,-3.5 4,1.5 6,9 0,4 -6,9 -4,1.5 -9,-3.5 -2.5,-3.5" fill="#3a2000"/>
      <circle cx="0" cy="0" r="2.5" fill="#FFE57F"/>
    </g>
    <!-- Blush -->
    <ellipse cx="74"  cy="119" rx="10" ry="6" fill="#FFAB40" opacity="0.5"/>
    <ellipse cx="115" cy="112" rx="10" ry="6" fill="#FFAB40" opacity="0.5"/>
    <!-- Open smile -->
    <path d="M78 128 Q94 143 113 128" fill="none" stroke="#3a2000" stroke-width="3.5" stroke-linecap="round"/>
    <!-- Sparkles -->
    <text x="36"  y="55"  font-size="13" opacity="0.85">✨</text>
    <text x="142" y="60"  font-size="13" opacity="0.85">✨</text>
    <text x="32"  y="148" font-size="11" opacity="0.7">✨</text>
    <text x="142" y="152" font-size="11" opacity="0.7">✨</text>
  </g>
</svg>
