<svg xmlns="http://www.w3.org/2000/svg" viewBox="0 0 200 200" width="200" height="200">
  <!-- Shadow -->
  <ellipse cx="100" cy="175" rx="55" ry="12" fill="rgba(0,0,0,0.12)"/>
  <!-- Stem -->
  <path d="M95 30 Q90 15 80 10 Q88 18 92 32" fill="#4a2c00" stroke="#3a1f00" stroke-width="1.5"/>
  <!-- Main banana body -->
  <path d="M92 35 Q60 50 45 90 Q35 120 50 155 Q60 175 80 178 Q100 180 115 170 Q130 158 135 135 Q142 105 138 75 Q134 50 115 38 Q105 32 92 35Z"
        fill="#FFD740" stroke="#F9A825" stroke-width="2"/>
  <!-- Highlight -->
  <path d="M98 40 Q72 55 58 92 Q50 118 62 150 Q70 170 85 172"
        fill="none" stroke="#FFFDE7" stroke-width="6" stroke-linecap="round" opacity="0.6"/>
  <!-- Tip -->
  <path d="M50 155 Q45 165 48 172 Q52 160 58 158" fill="#4a2c00"/>
  <!-- Face: eyes -->
  <circle cx="90" cy="100" r="7" fill="#3a2000"/>
  <circle cx="115" cy="95" r="7" fill="#3a2000"/>
  <circle cx="92" cy="98" r="2.5" fill="white"/>
  <circle cx="117" cy="93" r="2.5" fill="white"/>
  <!-- Face: blush -->
  <ellipse cx="82" cy="112" rx="8" ry="5" fill="#ff8a80" opacity="0.55"/>
  <ellipse cx="123" cy="107" rx="8" ry="5" fill="#ff8a80" opacity="0.55"/>
  <!-- Face: smile -->
  <path d="M88 118 Q102 130 118 118" fill="none" stroke="#3a2000" stroke-width="3" stroke-linecap="round"/>
</svg>
